<svg width="21" height="13" viewBox="0 0 21 13" fill="none" xmlns="http://www.w3.org/2000/svg">
<path d="M0.811394 8.00059e-05C0.705384 -0.00141923 0.600134 0.0181658 0.50176 0.0576968C0.403385 0.0972278 0.313848 0.155916 0.238352 0.230352C0.162857 0.304788 0.102908 0.393486 0.0619895 0.491291C0.0210713 0.589097 0 0.69406 0 0.80008C0 0.9061 0.0210713 1.01106 0.0619895 1.10887C0.102908 1.20667 0.162857 1.29537 0.238352 1.36981C0.313848 1.44424 0.403385 1.50293 0.50176 1.54246C0.600134 1.58199 0.705384 1.60158 0.811394 1.60008H20.0114C20.1174 1.60158 20.2227 1.58199 20.321 1.54246C20.4194 1.50293 20.5089 1.44424 20.5844 1.36981C20.6599 1.29537 20.7199 1.20667 20.7608 1.10887C20.8017 1.01106 20.8228 0.9061 20.8228 0.80008C20.8228 0.69406 20.8017 0.589097 20.7608 0.491291C20.7199 0.393486 20.6599 0.304788 20.5844 0.230352C20.5089 0.155916 20.4194 0.0972278 20.321 0.0576968C20.2227 0.0181658 20.1174 -0.00141923 20.0114 8.00059e-05H0.811394ZM0.811394 5.60008C0.705384 5.59858 0.600134 5.61817 0.50176 5.6577C0.403385 5.69723 0.313848 5.75592 0.238352 5.83035C0.162857 5.90479 0.102908 5.99349 0.0619895 6.09129C0.0210713 6.1891 0 6.29406 0 6.40008C0 6.5061 0.0210713 6.61106 0.0619895 6.70887C0.102908 6.80667 0.162857 6.89537 0.238352 6.96981C0.313848 7.04424 0.403385 7.10293 0.50176 7.14246C0.600134 7.18199 0.705384 7.20158 0.811394 7.20008H20.0114C20.1174 7.20158 20.2227 7.18199 20.321 7.14246C20.4194 7.10293 20.5089 7.04424 20.5844 6.96981C20.6599 6.89537 20.7199 6.80667 20.7608 6.70887C20.8017 6.61106 20.8228 6.5061 20.8228 6.40008C20.8228 6.29406 20.8017 6.1891 20.7608 6.09129C20.7199 5.99349 20.6599 5.90479 20.5844 5.83035C20.5089 5.75592 20.4194 5.69723 20.321 5.6577C20.2227 5.61817 20.1174 5.59858 20.0114 5.60008H0.811394ZM0.811394 11.2001C0.705384 11.1986 0.600134 11.2182 0.50176 11.2577C0.403385 11.2972 0.313848 11.3559 0.238352 11.4304C0.162857 11.5048 0.102908 11.5935 0.0619895 11.6913C0.0210713 11.7891 0 11.8941 0 12.0001C0 12.1061 0.0210713 12.2111 0.0619895 12.3089C0.102908 12.4067 0.162857 12.4954 0.238352 12.5698C0.313848 12.6442 0.403385 12.7029 0.50176 12.7425C0.600134 12.782 0.705384 12.8016 0.811394 12.8001H20.0114C20.1174 12.8016 20.2227 12.782 20.321 12.7425C20.4194 12.7029 20.5089 12.6442 20.5844 12.5698C20.6599 12.4954 20.7199 12.4067 20.7608 12.3089C20.8017 12.2111 20.8228 12.1061 20.8228 12.0001C20.8228 11.8941 20.8017 11.7891 20.7608 11.6913C20.7199 11.5935 20.6599 11.5048 20.5844 11.4304C20.5089 11.3559 20.4194 11.2972 20.321 11.2577C20.2227 11.2182 20.1174 11.1986 20.0114 11.2001H0.811394Z" fill="black"/>
</svg>
