<svg width="16" height="16" viewBox="0 0 16 16" fill="none" xmlns="http://www.w3.org/2000/svg">
<path d="M8.00001 1.33331C4.32403 1.33331 1.33334 4.324 1.33334 7.99998C1.33334 11.676 4.32403 14.6666 8.00001 14.6666C11.676 14.6666 14.6667 11.676 14.6667 7.99998C14.6667 4.324 11.676 1.33331 8.00001 1.33331ZM8.00001 2.33331C11.1355 2.33331 13.6667 4.86444 13.6667 7.99998C13.6667 11.1355 11.1355 13.6666 8.00001 13.6666C4.86447 13.6666 2.33334 11.1355 2.33334 7.99998C2.33334 4.86444 4.86447 2.33331 8.00001 2.33331ZM10.4902 5.99542C10.3604 5.99921 10.2371 6.05338 10.1465 6.14646L7.16668 9.12628L5.85353 7.81313C5.80745 7.76514 5.75227 7.72683 5.6912 7.70044C5.63014 7.67405 5.56442 7.66011 5.4979 7.65943C5.43139 7.65876 5.3654 7.67136 5.30381 7.69651C5.24222 7.72165 5.18627 7.75883 5.13923 7.80587C5.09219 7.85291 5.05501 7.90886 5.02987 7.97045C5.00472 8.03203 4.99212 8.09802 4.9928 8.16454C4.99347 8.23106 5.00742 8.29678 5.03381 8.35784C5.0602 8.4189 5.09851 8.47409 5.14649 8.52016L6.81316 10.1868C6.90693 10.2806 7.03409 10.3332 7.16668 10.3332C7.29926 10.3332 7.42642 10.2806 7.52019 10.1868L10.8535 6.8535C10.9257 6.78324 10.9749 6.69285 10.9948 6.59415C11.0147 6.49545 11.0044 6.39303 10.9651 6.30031C10.9259 6.20759 10.8595 6.12888 10.7748 6.07448C10.6901 6.02008 10.5909 5.99252 10.4902 5.99542Z" fill="#5E5E5E"/>
</svg>
