<svg width="21" height="18" viewBox="0 0 21 18" fill="none" xmlns="http://www.w3.org/2000/svg">
<path d="M2.25 0C1.01625 0 0 1.01625 0 2.25V14.75C0 16.536 1.46403 18 3.25 18H17.75C19.536 18 21 16.536 21 14.75V7.25C21 6.01625 19.9838 5 18.75 5H18V2.25C18 1.01625 16.9838 0 15.75 0H2.25ZM2.25 1.5H15.75C16.1733 1.5 16.5 1.82675 16.5 2.25V5.62695C16.4868 5.70747 16.4868 5.7896 16.5 5.87012V14.25C16.4986 14.3494 16.517 14.4481 16.554 14.5403C16.5911 14.6325 16.6461 14.7164 16.7159 14.7872C16.7857 14.858 16.8688 14.9142 16.9605 14.9526C17.0522 14.9909 17.1506 15.0107 17.25 15.0107C17.3494 15.0107 17.4478 14.9909 17.5395 14.9526C17.6312 14.9142 17.7143 14.858 17.7841 14.7872C17.8539 14.7164 17.9089 14.6325 17.946 14.5403C17.983 14.4481 18.0014 14.3494 18 14.25V6.5H18.75C19.1733 6.5 19.5 6.82675 19.5 7.25V14.75C19.5 15.725 18.725 16.5 17.75 16.5H3.25C2.27497 16.5 1.5 15.725 1.5 14.75V2.25C1.5 1.82675 1.82675 1.5 2.25 1.5ZM3.75 4.5C3.65062 4.49859 3.55194 4.51696 3.45972 4.55402C3.36749 4.59108 3.28355 4.6461 3.21277 4.71588C3.142 4.78566 3.08579 4.86882 3.04743 4.96051C3.00907 5.0522 2.98932 5.15061 2.98932 5.25C2.98932 5.34939 3.00907 5.4478 3.04743 5.53949C3.08579 5.63118 3.142 5.71434 3.21277 5.78412C3.28355 5.8539 3.36749 5.90892 3.45972 5.94598C3.55194 5.98304 3.65062 6.00141 3.75 6H14.25C14.3494 6.00141 14.4481 5.98304 14.5403 5.94598C14.6325 5.90892 14.7164 5.8539 14.7872 5.78412C14.858 5.71434 14.9142 5.63118 14.9526 5.53949C14.9909 5.4478 15.0107 5.34939 15.0107 5.25C15.0107 5.15061 14.9909 5.0522 14.9526 4.96051C14.9142 4.86882 14.858 4.78566 14.7872 4.71588C14.7164 4.6461 14.6325 4.59108 14.5403 4.55402C14.4481 4.51696 14.3494 4.49859 14.25 4.5H3.75ZM3.75 8.5C3.55109 8.50002 3.36034 8.57904 3.21969 8.71969C3.07904 8.86034 3.00002 9.05109 3 9.25V12.75C3.00002 12.9489 3.07904 13.1397 3.21969 13.2803C3.36034 13.421 3.55109 13.5 3.75 13.5H7.25C7.44891 13.5 7.63966 13.421 7.78031 13.2803C7.92096 13.1397 7.99998 12.9489 8 12.75V9.25C7.99998 9.05109 7.92096 8.86034 7.78031 8.71969C7.63966 8.57904 7.44891 8.50002 7.25 8.5H3.75ZM10.25 8.5C10.1506 8.49859 10.0519 8.51696 9.95972 8.55402C9.86749 8.59108 9.78355 8.6461 9.71277 8.71588C9.642 8.78566 9.58579 8.86882 9.54743 8.96051C9.50907 9.0522 9.48932 9.15061 9.48932 9.25C9.48932 9.34939 9.50907 9.4478 9.54743 9.53949C9.58579 9.63118 9.642 9.71434 9.71277 9.78412C9.78355 9.8539 9.86749 9.90892 9.95972 9.94598C10.0519 9.98304 10.1506 10.0014 10.25 10H14.25C14.3494 10.0014 14.4481 9.98304 14.5403 9.94598C14.6325 9.90892 14.7164 9.8539 14.7872 9.78412C14.858 9.71434 14.9142 9.63118 14.9526 9.53949C14.9909 9.4478 15.0107 9.34939 15.0107 9.25C15.0107 9.15061 14.9909 9.0522 14.9526 8.96051C14.9142 8.86882 14.858 8.78566 14.7872 8.71588C14.7164 8.6461 14.6325 8.59108 14.5403 8.55402C14.4481 8.51696 14.3494 8.49859 14.25 8.5H10.25ZM4.5 10H6.5V12H4.5V10ZM10.25 12C10.1506 11.9986 10.0519 12.017 9.95972 12.054C9.86749 12.0911 9.78355 12.1461 9.71277 12.2159C9.642 12.2857 9.58579 12.3688 9.54743 12.4605C9.50907 12.5522 9.48932 12.6506 9.48932 12.75C9.48932 12.8494 9.50907 12.9478 9.54743 13.0395C9.58579 13.1312 9.642 13.2143 9.71277 13.2841C9.78355 13.3539 9.86749 13.4089 9.95972 13.446C10.0519 13.483 10.1506 13.5014 10.25 13.5H14.25C14.3494 13.5014 14.4481 13.483 14.5403 13.446C14.6325 13.4089 14.7164 13.3539 14.7872 13.2841C14.858 13.2143 14.9142 13.1312 14.9526 13.0395C14.9909 12.9478 15.0107 12.8494 15.0107 12.75C15.0107 12.6506 14.9909 12.5522 14.9526 12.4605C14.9142 12.3688 14.858 12.2857 14.7872 12.2159C14.7164 12.1461 14.6325 12.0911 14.5403 12.054C14.4481 12.017 14.3494 11.9986 14.25 12H10.25Z" fill="black"/>
</svg>
