<svg width="14" height="14" viewBox="0 0 14 14" fill="none" xmlns="http://www.w3.org/2000/svg">
<path d="M6.66667 0C2.99069 0 0 2.99069 0 6.66667C0 10.3426 2.99069 13.3333 6.66667 13.3333C10.3426 13.3333 13.3333 10.3426 13.3333 6.66667C13.3333 2.99069 10.3426 0 6.66667 0ZM6.66667 1C9.8022 1 12.3333 3.53113 12.3333 6.66667C12.3333 9.8022 9.8022 12.3333 6.66667 12.3333C3.53113 12.3333 1 9.8022 1 6.66667C1 3.53113 3.53113 1 6.66667 1ZM9.1569 4.66211C9.02705 4.66589 8.90376 4.72006 8.81315 4.81315L5.83333 7.79297L4.52018 6.47982C4.47411 6.43183 4.41892 6.39352 4.35786 6.36713C4.2968 6.34074 4.23108 6.3268 4.16456 6.32612C4.09804 6.32544 4.03206 6.33805 3.97047 6.36319C3.90888 6.38834 3.85293 6.42552 3.80589 6.47256C3.75885 6.51959 3.72167 6.57555 3.69653 6.63713C3.67138 6.69872 3.65878 6.76471 3.65945 6.83123C3.66013 6.89775 3.67407 6.96346 3.70046 7.02453C3.72686 7.08559 3.76517 7.14078 3.81315 7.18685L5.47982 8.85351C5.57359 8.94725 5.70075 8.9999 5.83333 8.9999C5.96592 8.9999 6.09308 8.94725 6.18685 8.85351L9.52018 5.52018C9.59231 5.44993 9.64156 5.35954 9.66147 5.26084C9.68138 5.16213 9.67103 5.05972 9.63178 4.967C9.59252 4.87428 9.52619 4.79556 9.44146 4.74116C9.35673 4.68676 9.25755 4.65921 9.1569 4.66211Z" fill="#5E5E5E"/>
</svg>
