<svg width="14" height="14" viewBox="0 0 14 14" fill="none" xmlns="http://www.w3.org/2000/svg">
<path d="M6.66668 0C10.3426 0 13.3333 2.99076 13.3333 6.66667C13.3333 7.75844 13.0458 8.77828 12.5794 9.68815L13.3021 12.276C13.4704 12.8772 12.876 13.4709 12.2747 13.3027L9.68556 12.5801C8.77633 13.0458 7.75769 13.3333 6.66668 13.3333C2.99078 13.3333 1.14441e-05 10.3426 1.14441e-05 6.66667C1.14441e-05 2.99076 2.99078 0 6.66668 0ZM6.66668 1C3.53125 1 1.00001 3.53124 1.00001 6.66667C1.00001 9.8021 3.53125 12.3333 6.66668 12.3333C7.66767 12.3333 8.60259 12.0728 9.41863 11.6178C9.53385 11.5535 9.66981 11.5374 9.79689 11.5729L12.2591 12.2604L11.5716 9.79948C11.5361 9.6724 11.5523 9.53644 11.6165 9.42122C12.0721 8.60449 12.3333 7.66817 12.3333 6.66667C12.3333 3.53124 9.80211 1 6.66668 1Z" fill="#5E5E5E"/>
</svg>
