<svg width="21" height="13" viewBox="0 0 21 13" fill="none" xmlns="http://www.w3.org/2000/svg">
<path d="M0.811394 0.000171559C0.705384 -0.00132768 0.600134 0.0182574 0.50176 0.0577884C0.403385 0.0973194 0.313848 0.156008 0.238352 0.230443C0.162857 0.304879 0.102908 0.393577 0.0619895 0.491383C0.0210713 0.589189 0 0.694151 0 0.800172C0 0.906192 0.0210713 1.01115 0.0619895 1.10896C0.102908 1.20677 0.162857 1.29546 0.238352 1.3699C0.313848 1.44434 0.403385 1.50302 0.50176 1.54256C0.600134 1.58209 0.705384 1.60167 0.811394 1.60017H20.0114C20.1174 1.60167 20.2227 1.58209 20.321 1.54256C20.4194 1.50302 20.5089 1.44434 20.5844 1.3699C20.6599 1.29546 20.7199 1.20677 20.7608 1.10896C20.8017 1.01115 20.8228 0.906192 20.8228 0.800172C20.8228 0.694151 20.8017 0.589189 20.7608 0.491383C20.7199 0.393577 20.6599 0.304879 20.5844 0.230443C20.5089 0.156008 20.4194 0.0973194 20.321 0.0577884C20.2227 0.0182574 20.1174 -0.00132768 20.0114 0.000171559H0.811394ZM0.811394 5.60017C0.705384 5.59867 0.600134 5.61826 0.50176 5.65779C0.403385 5.69732 0.313848 5.75601 0.238352 5.83044C0.162857 5.90488 0.102908 5.99358 0.0619895 6.09138C0.0210713 6.18919 0 6.29415 0 6.40017C0 6.50619 0.0210713 6.61116 0.0619895 6.70896C0.102908 6.80677 0.162857 6.89546 0.238352 6.9699C0.313848 7.04434 0.403385 7.10302 0.50176 7.14256C0.600134 7.18209 0.705384 7.20167 0.811394 7.20017H20.0114C20.1174 7.20167 20.2227 7.18209 20.321 7.14256C20.4194 7.10302 20.5089 7.04434 20.5844 6.9699C20.6599 6.89546 20.7199 6.80677 20.7608 6.70896C20.8017 6.61116 20.8228 6.50619 20.8228 6.40017C20.8228 6.29415 20.8017 6.18919 20.7608 6.09138C20.7199 5.99358 20.6599 5.90488 20.5844 5.83044C20.5089 5.75601 20.4194 5.69732 20.321 5.65779C20.2227 5.61826 20.1174 5.59867 20.0114 5.60017H0.811394ZM0.811394 11.2002C0.705384 11.1987 0.600134 11.2183 0.50176 11.2578C0.403385 11.2973 0.313848 11.356 0.238352 11.4304C0.162857 11.5049 0.102908 11.5936 0.0619895 11.6914C0.0210713 11.7892 0 11.8942 0 12.0002C0 12.1062 0.0210713 12.2112 0.0619895 12.309C0.102908 12.4068 0.162857 12.4955 0.238352 12.5699C0.313848 12.6443 0.403385 12.703 0.50176 12.7426C0.600134 12.7821 0.705384 12.8017 0.811394 12.8002H20.0114C20.1174 12.8017 20.2227 12.7821 20.321 12.7426C20.4194 12.703 20.5089 12.6443 20.5844 12.5699C20.6599 12.4955 20.7199 12.4068 20.7608 12.309C20.8017 12.2112 20.8228 12.1062 20.8228 12.0002C20.8228 11.8942 20.8017 11.7892 20.7608 11.6914C20.7199 11.5936 20.6599 11.5049 20.5844 11.4304C20.5089 11.356 20.4194 11.2973 20.321 11.2578C20.2227 11.2183 20.1174 11.1987 20.0114 11.2002H0.811394Z" fill="black"/>
</svg>
