<svg width="20" height="20" viewBox="0 0 20 20" fill="none" xmlns="http://www.w3.org/2000/svg">
<path d="M8 -3.05176e-05C3.5912 -3.05176e-05 0 3.59117 0 7.99997C0 12.4088 3.5912 16 8 16C9.91721 16 11.6779 15.3192 13.0578 14.189L17.8344 18.9656C17.9081 19.0424 17.9964 19.1037 18.0941 19.1459C18.1918 19.1881 18.2969 19.2104 18.4034 19.2115C18.5098 19.2126 18.6154 19.1924 18.7139 19.1522C18.8125 19.112 18.902 19.0525 18.9773 18.9772C19.0525 18.902 19.112 18.8124 19.1522 18.7139C19.1925 18.6154 19.2126 18.5098 19.2116 18.4033C19.2105 18.2969 19.1882 18.1918 19.1459 18.0941C19.1037 17.9964 19.0424 17.9081 18.9656 17.8343L14.1891 13.0578C15.3192 11.6779 16 9.91718 16 7.99997C16 3.59117 12.4088 -3.05176e-05 8 -3.05176e-05ZM8 1.59997C11.5441 1.59997 14.4 4.45587 14.4 7.99997C14.4 11.5441 11.5441 14.4 8 14.4C4.4559 14.4 1.6 11.5441 1.6 7.99997C1.6 4.45587 4.4559 1.59997 8 1.59997Z" fill="black"/>
</svg>
